<!-- Generated from lucide-static. See /lucide-LICENSE.txt. -->
<svg xmlns="http://www.w3.org/2000/svg">
  <symbol id="arrow-up-right" viewBox="0 0 24 24"><path d="M7 7h10v10" />
  <path d="M7 17 17 7" /></symbol>
  <symbol id="arrow-down-right" viewBox="0 0 24 24"><path d="m7 7 10 10" />
  <path d="M17 7v10H7" /></symbol>
  <symbol id="arrow-down" viewBox="0 0 24 24"><path d="M12 5v14" />
  <path d="m19 12-7 7-7-7" /></symbol>
  <symbol id="arrow-up" viewBox="0 0 24 24"><path d="m5 12 7-7 7 7" />
  <path d="M12 19V5" /></symbol>
  <symbol id="house" viewBox="0 0 24 24"><path d="M15 21v-8a1 1 0 0 0-1-1h-4a1 1 0 0 0-1 1v8" />
  <path d="M3 10a2 2 0 0 1 .709-1.528l7-6a2 2 0 0 1 2.582 0l7 6A2 2 0 0 1 21 10v9a2 2 0 0 1-2 2H5a2 2 0 0 1-2-2z" /></symbol>
  <symbol id="folder" viewBox="0 0 24 24"><path d="M20 20a2 2 0 0 0 2-2V8a2 2 0 0 0-2-2h-7.9a2 2 0 0 1-1.69-.9L9.6 3.9A2 2 0 0 0 7.93 3H4a2 2 0 0 0-2 2v13a2 2 0 0 0 2 2Z" /></symbol>
  <symbol id="chevron-left" viewBox="0 0 24 24"><path d="m15 18-6-6 6-6" /></symbol>
  <symbol id="layout-grid" viewBox="0 0 24 24"><rect width="7" height="7" x="3" y="3" rx="1" />
  <rect width="7" height="7" x="14" y="3" rx="1" />
  <rect width="7" height="7" x="14" y="14" rx="1" />
  <rect width="7" height="7" x="3" y="14" rx="1" /></symbol>
  <symbol id="check" viewBox="0 0 24 24"><path d="M20 6 9 17l-5-5" /></symbol>
  <symbol id="x" viewBox="0 0 24 24"><path d="M18 6 6 18" />
  <path d="m6 6 12 12" /></symbol>
  <symbol id="rotate-ccw" viewBox="0 0 24 24"><path d="M3 12a9 9 0 1 0 9-9 9.75 9.75 0 0 0-6.74 2.74L3 8" />
  <path d="M3 3v5h5" /></symbol>
  <symbol id="search" viewBox="0 0 24 24"><path d="m21 21-4.34-4.34" />
  <circle cx="11" cy="11" r="8" /></symbol>
  <symbol id="clock" viewBox="0 0 24 24"><circle cx="12" cy="12" r="10" />
  <path d="M12 6v6l4 2" /></symbol>
  <symbol id="monitor" viewBox="0 0 24 24"><rect width="20" height="14" x="2" y="3" rx="2" />
  <line x1="8" x2="16" y1="21" y2="21" />
  <line x1="12" x2="12" y1="17" y2="21" /></symbol>
  <symbol id="download" viewBox="0 0 24 24"><path d="M12 15V3" />
  <path d="M21 15v4a2 2 0 0 1-2 2H5a2 2 0 0 1-2-2v-4" />
  <path d="m7 10 5 5 5-5" /></symbol>
  <symbol id="laptop" viewBox="0 0 24 24"><path d="M18 5a2 2 0 0 1 2 2v8.526a2 2 0 0 0 .212.897l1.068 2.127a1 1 0 0 1-.9 1.45H3.62a1 1 0 0 1-.9-1.45l1.068-2.127A2 2 0 0 0 4 15.526V7a2 2 0 0 1 2-2z" />
  <path d="M20.054 15.987H3.946" /></symbol>
  <symbol id="compass" viewBox="0 0 24 24"><circle cx="12" cy="12" r="10" />
  <path d="m16.24 7.76-1.804 5.411a2 2 0 0 1-1.265 1.265L7.76 16.24l1.804-5.411a2 2 0 0 1 1.265-1.265z" /></symbol>
  <symbol id="terminal" viewBox="0 0 24 24"><path d="M12 19h8" />
  <path d="m4 17 6-6-6-6" /></symbol>
  <symbol id="trash-2" viewBox="0 0 24 24"><path d="M10 11v6" />
  <path d="M14 11v6" />
  <path d="M19 6v14a2 2 0 0 1-2 2H7a2 2 0 0 1-2-2V6" />
  <path d="M3 6h18" />
  <path d="M8 6V4a2 2 0 0 1 2-2h4a2 2 0 0 1 2 2v2" /></symbol>
  <symbol id="wifi" viewBox="0 0 24 24"><path d="M12 20h.01" />
  <path d="M2 8.82a15 15 0 0 1 20 0" />
  <path d="M5 12.859a10 10 0 0 1 14 0" />
  <path d="M8.5 16.429a5 5 0 0 1 7 0" /></symbol>
  <symbol id="battery-medium" viewBox="0 0 24 24"><path d="M10 14v-4" />
  <path d="M22 14v-4" />
  <path d="M6 14v-4" />
  <rect x="2" y="6" width="16" height="12" rx="2" /></symbol>
  <symbol id="command" viewBox="0 0 24 24"><path d="M15 6v12a3 3 0 1 0 3-3H6a3 3 0 1 0 3 3V6a3 3 0 1 0-3 3h12a3 3 0 1 0-3-3" /></symbol>
  <symbol id="asterisk" viewBox="0 0 24 24"><path d="M12 5v14" />
  <path d="m18.065 8.496-12.125 7" />
  <path d="m5.94 8.504 12.125 7" /></symbol>
  <symbol id="corner-down-right" viewBox="0 0 24 24"><path d="m15 10 5 5-5 5" />
  <path d="M4 4v7a4 4 0 0 0 4 4h12" /></symbol>
  <symbol id="corner-down-left" viewBox="0 0 24 24"><path d="M20 4v7a4 4 0 0 1-4 4H4" />
  <path d="m9 10-5 5 5 5" /></symbol>
</svg>
